<svg viewBox="0 0 980 760" xmlns="http://www.w3.org/2000/svg" role="img" aria-label="Horizontal stacked bar chart comparing total JSON parse time across seven Java JSON library configurations, broken down by corpus file. jsonparser/stream is fastest at 88.96 milliseconds; org.json/dom is slowest at 327.51 milliseconds.">
<style>
  .surface { fill: #fcfcfb; }
  .ink-primary { fill: #0b0b0b; }
  .ink-secondary { fill: #52514e; }
  .ink-muted { fill: #898781; }
  .grid { stroke: #e1e0d9; stroke-width: 1; }
  .axis { stroke: #c3c2b7; stroke-width: 1; }
  .gap { stroke: #fcfcfb; stroke-width: 2; }
  text { font-family: system-ui, -apple-system, "Segoe UI", sans-serif; }
  .title { font-size: 22px; font-weight: 500; }
  .subtitle { font-size: 14px; }
  .lib-label { font-size: 13px; font-weight: 500; }
  .mode-label { font-size: 12px; }
  .total-label { font-size: 13px; font-weight: 500; }
  .axis-tick { font-size: 11px; }
  .legend-label { font-size: 12px; }
  .cat-0 { fill: #2a78d6; }
  .cat-1 { fill: #1baf7a; }
  .cat-2 { fill: #eda100; }
  .cat-3 { fill: #008300; }
  .cat-4 { fill: #4a3aa7; }
  .cat-5 { fill: #e34948; }
  .cat-6 { fill: #e87ba4; }
  .cat-7 { fill: #eb6834; }
  .cat-8 { fill: #0b6e7a; }
  .cat-9 { fill: #8a5a2b; }
  .cat-10 { fill: #898781; }
  @media (prefers-color-scheme: dark) {
    .surface { fill: #1a1a19; }
    .ink-primary { fill: #ffffff; }
    .ink-secondary { fill: #c3c2b7; }
    .ink-muted { fill: #898781; }
    .grid { stroke: #2c2c2a; }
    .axis { stroke: #383835; }
    .gap { stroke: #1a1a19; }
    .cat-0 { fill: #3987e5; }
    .cat-1 { fill: #199e70; }
    .cat-2 { fill: #c98500; }
    .cat-3 { fill: #008300; }
    .cat-4 { fill: #9085e9; }
    .cat-5 { fill: #e66767; }
    .cat-6 { fill: #d55181; }
    .cat-7 { fill: #d95926; }
    .cat-8 { fill: #1592a0; }
    .cat-9 { fill: #b17a42; }
    .cat-10 { fill: #c3c2b7; }
  }
</style>
<rect class="surface" x="0" y="0" width="980" height="760" rx="12"/>
<text x="168" y="40" class="title ink-primary">JSON parser benchmark comparison</text>
<text x="168" y="64" class="subtitle ink-secondary">Total time to parse the full 13-file benchmark corpus, in milliseconds, by library and mode. Smaller is better.</text>
<line class="grid" x1="168.0" y1="102" x2="168.0" y2="454"/>
<text x="168.0" y="476" text-anchor="middle" class="axis-tick ink-muted">0</text>
<line class="grid" x1="272.9" y1="102" x2="272.9" y2="454"/>
<text x="272.9" y="476" text-anchor="middle" class="axis-tick ink-muted">50</text>
<line class="grid" x1="377.7" y1="102" x2="377.7" y2="454"/>
<text x="377.7" y="476" text-anchor="middle" class="axis-tick ink-muted">100</text>
<line class="grid" x1="482.6" y1="102" x2="482.6" y2="454"/>
<text x="482.6" y="476" text-anchor="middle" class="axis-tick ink-muted">150</text>
<line class="grid" x1="587.4" y1="102" x2="587.4" y2="454"/>
<text x="587.4" y="476" text-anchor="middle" class="axis-tick ink-muted">200</text>
<line class="grid" x1="692.3" y1="102" x2="692.3" y2="454"/>
<text x="692.3" y="476" text-anchor="middle" class="axis-tick ink-muted">250</text>
<line class="grid" x1="797.1" y1="102" x2="797.1" y2="454"/>
<text x="797.1" y="476" text-anchor="middle" class="axis-tick ink-muted">300</text>
<line class="grid" x1="902.0" y1="102" x2="902.0" y2="454"/>
<text x="902.0" y="476" text-anchor="middle" class="axis-tick ink-muted">350</text>
<text x="535.0" y="494" text-anchor="middle" class="axis-tick ink-muted">milliseconds</text>
<line class="axis" x1="168" y1="102" x2="168" y2="454"/>
<path d="M 172.00 108 L 261.55 108 L 261.55 142 L 172.00 142 Q 168.00 142 168.00 138 L 168.00 112 Q 168.00 108 172.00 108 Z" class="cat-0">
<title>large_mixed.json: 44.61 ms</title>
</path>
<line class="gap" x1="261.55" y1="108" x2="261.55" y2="142"/>
<rect x="261.55" y="108" width="10.47" height="34" class="cat-1">
<title>wide_object.json: 4.99 ms</title>
</rect>
<line class="gap" x1="272.02" y1="108" x2="272.02" y2="142"/>
<rect x="272.02" y="108" width="23.42" height="34" class="cat-2">
<title>numbers_heavy.json: 11.17 ms</title>
</rect>
<line class="gap" x1="295.43" y1="108" x2="295.43" y2="142"/>
<rect x="295.43" y="108" width="7.98" height="34" class="cat-3">
<title>canada.json: 3.81 ms</title>
</rect>
<line class="gap" x1="303.41" y1="108" x2="303.41" y2="142"/>
<rect x="303.41" y="108" width="18.03" height="34" class="cat-4">
<title>strings_unicode.json: 8.60 ms</title>
</rect>
<line class="gap" x1="321.44" y1="108" x2="321.44" y2="142"/>
<rect x="321.44" y="108" width="9.83" height="34" class="cat-5">
<title>medium_mixed.json: 4.69 ms</title>
</rect>
<line class="gap" x1="331.28" y1="108" x2="331.28" y2="142"/>
<rect x="331.28" y="108" width="9.20" height="34" class="cat-6">
<title>strings_ascii.json: 4.39 ms</title>
</rect>
<line class="gap" x1="340.48" y1="108" x2="340.48" y2="142"/>
<rect x="340.48" y="108" width="5.92" height="34" class="cat-7">
<title>booleans_nulls.json: 2.82 ms</title>
</rect>
<line class="gap" x1="346.39" y1="108" x2="346.39" y2="142"/>
<rect x="346.39" y="108" width="3.97" height="34" class="cat-8">
<title>citm_catalog.json: 1.89 ms</title>
</rect>
<line class="gap" x1="350.36" y1="108" x2="350.36" y2="142"/>
<rect x="350.36" y="108" width="3.24" height="34" class="cat-9">
<title>twitter.json: 1.54 ms</title>
</rect>
<line class="gap" x1="353.60" y1="108" x2="353.60" y2="142"/>
<path d="M 353.60 108 L 354.08 108 Q 354.56 108 354.56 108.48129428571428 L 354.56 141.51870571428572 Q 354.56 142 354.08 142 L 353.60 142 Z" class="cat-10">
<title>other (3 smaller files): 0.46 ms</title>
</path>
<text x="156" y="122.0" text-anchor="end" class="lib-label ink-primary">jsonparser</text>
<text x="156" y="137.0" text-anchor="end" class="mode-label ink-secondary">stream</text>
<text x="364.6" y="129.5" class="total-label ink-primary">88.96 ms</text>
<path d="M 172.00 160 L 333.80 160 L 333.80 194 L 172.00 194 Q 168.00 194 168.00 190 L 168.00 164 Q 168.00 160 172.00 160 Z" class="cat-0">
<title>large_mixed.json: 79.06 ms</title>
</path>
<line class="gap" x1="333.80" y1="160" x2="333.80" y2="194"/>
<rect x="333.80" y="160" width="10.88" height="34" class="cat-1">
<title>wide_object.json: 5.19 ms</title>
</rect>
<line class="gap" x1="344.67" y1="160" x2="344.67" y2="194"/>
<rect x="344.67" y="160" width="23.93" height="34" class="cat-2">
<title>numbers_heavy.json: 11.41 ms</title>
</rect>
<line class="gap" x1="368.60" y1="160" x2="368.60" y2="194"/>
<rect x="368.60" y="160" width="11.23" height="34" class="cat-3">
<title>canada.json: 5.36 ms</title>
</rect>
<line class="gap" x1="379.83" y1="160" x2="379.83" y2="194"/>
<rect x="379.83" y="160" width="19.76" height="34" class="cat-4">
<title>strings_unicode.json: 9.42 ms</title>
</rect>
<line class="gap" x1="399.59" y1="160" x2="399.59" y2="194"/>
<rect x="399.59" y="160" width="11.89" height="34" class="cat-5">
<title>medium_mixed.json: 5.67 ms</title>
</rect>
<line class="gap" x1="411.48" y1="160" x2="411.48" y2="194"/>
<rect x="411.48" y="160" width="14.97" height="34" class="cat-6">
<title>strings_ascii.json: 7.14 ms</title>
</rect>
<line class="gap" x1="426.44" y1="160" x2="426.44" y2="194"/>
<rect x="426.44" y="160" width="4.63" height="34" class="cat-7">
<title>booleans_nulls.json: 2.21 ms</title>
</rect>
<line class="gap" x1="431.07" y1="160" x2="431.07" y2="194"/>
<rect x="431.07" y="160" width="9.67" height="34" class="cat-8">
<title>citm_catalog.json: 4.61 ms</title>
</rect>
<line class="gap" x1="440.74" y1="160" x2="440.74" y2="194"/>
<rect x="440.74" y="160" width="3.97" height="34" class="cat-9">
<title>twitter.json: 1.90 ms</title>
</rect>
<line class="gap" x1="444.71" y1="160" x2="444.71" y2="194"/>
<path d="M 444.71 160 L 445.01 160 Q 445.30 160 445.30 160.29464857142858 L 445.30 193.70535142857142 Q 445.30 194 445.01 194 L 444.71 194 Z" class="cat-10">
<title>other (3 smaller files): 0.28 ms</title>
</path>
<text x="156" y="174.0" text-anchor="end" class="lib-label ink-primary">minimal-json</text>
<text x="156" y="189.0" text-anchor="end" class="mode-label ink-secondary">dom</text>
<text x="455.3" y="181.5" class="total-label ink-primary">132.23 ms</text>
<path d="M 172.00 212 L 294.56 212 L 294.56 246 L 172.00 246 Q 168.00 246 168.00 242 L 168.00 216 Q 168.00 212 172.00 212 Z" class="cat-0">
<title>large_mixed.json: 60.35 ms</title>
</path>
<line class="gap" x1="294.56" y1="212" x2="294.56" y2="246"/>
<rect x="294.56" y="212" width="9.33" height="34" class="cat-1">
<title>wide_object.json: 4.45 ms</title>
</rect>
<line class="gap" x1="303.89" y1="212" x2="303.89" y2="246"/>
<rect x="303.89" y="212" width="42.50" height="34" class="cat-2">
<title>numbers_heavy.json: 20.27 ms</title>
</rect>
<line class="gap" x1="346.40" y1="212" x2="346.40" y2="246"/>
<rect x="346.40" y="212" width="40.48" height="34" class="cat-3">
<title>canada.json: 19.30 ms</title>
</rect>
<line class="gap" x1="386.88" y1="212" x2="386.88" y2="246"/>
<rect x="386.88" y="212" width="15.73" height="34" class="cat-4">
<title>strings_unicode.json: 7.50 ms</title>
</rect>
<line class="gap" x1="402.61" y1="212" x2="402.61" y2="246"/>
<rect x="402.61" y="212" width="12.99" height="34" class="cat-5">
<title>medium_mixed.json: 6.19 ms</title>
</rect>
<line class="gap" x1="415.59" y1="212" x2="415.59" y2="246"/>
<rect x="415.59" y="212" width="17.26" height="34" class="cat-6">
<title>strings_ascii.json: 8.23 ms</title>
</rect>
<line class="gap" x1="432.85" y1="212" x2="432.85" y2="246"/>
<rect x="432.85" y="212" width="5.93" height="34" class="cat-7">
<title>booleans_nulls.json: 2.83 ms</title>
</rect>
<line class="gap" x1="438.78" y1="212" x2="438.78" y2="246"/>
<rect x="438.78" y="212" width="4.31" height="34" class="cat-8">
<title>citm_catalog.json: 2.06 ms</title>
</rect>
<line class="gap" x1="443.09" y1="212" x2="443.09" y2="246"/>
<rect x="443.09" y="212" width="2.58" height="34" class="cat-9">
<title>twitter.json: 1.23 ms</title>
</rect>
<line class="gap" x1="445.68" y1="212" x2="445.68" y2="246"/>
<path d="M 445.68 212 L 446.02 212 Q 446.37 212 446.37 212.34498 L 446.37 245.65502 Q 446.37 246 446.02 246 L 445.68 246 Z" class="cat-10">
<title>other (3 smaller files): 0.33 ms</title>
</path>
<text x="156" y="226.0" text-anchor="end" class="lib-label ink-primary">gson</text>
<text x="156" y="241.0" text-anchor="end" class="mode-label ink-secondary">stream</text>
<text x="456.4" y="233.5" class="total-label ink-primary">132.74 ms</text>
<path d="M 172.00 264 L 267.47 264 L 267.47 298 L 172.00 298 Q 168.00 298 168.00 294 L 168.00 268 Q 168.00 264 172.00 264 Z" class="cat-0">
<title>large_mixed.json: 47.43 ms</title>
</path>
<line class="gap" x1="267.47" y1="264" x2="267.47" y2="298"/>
<rect x="267.47" y="264" width="82.12" height="34" class="cat-1">
<title>wide_object.json: 39.16 ms</title>
</rect>
<line class="gap" x1="349.59" y1="264" x2="349.59" y2="298"/>
<rect x="349.59" y="264" width="39.03" height="34" class="cat-2">
<title>numbers_heavy.json: 18.61 ms</title>
</rect>
<line class="gap" x1="388.62" y1="264" x2="388.62" y2="298"/>
<rect x="388.62" y="264" width="39.40" height="34" class="cat-3">
<title>canada.json: 18.79 ms</title>
</rect>
<line class="gap" x1="428.02" y1="264" x2="428.02" y2="298"/>
<rect x="428.02" y="264" width="18.09" height="34" class="cat-4">
<title>strings_unicode.json: 8.63 ms</title>
</rect>
<line class="gap" x1="446.11" y1="264" x2="446.11" y2="298"/>
<rect x="446.11" y="264" width="10.11" height="34" class="cat-5">
<title>medium_mixed.json: 4.82 ms</title>
</rect>
<line class="gap" x1="456.21" y1="264" x2="456.21" y2="298"/>
<rect x="456.21" y="264" width="5.28" height="34" class="cat-6">
<title>strings_ascii.json: 2.52 ms</title>
</rect>
<line class="gap" x1="461.50" y1="264" x2="461.50" y2="298"/>
<rect x="461.50" y="264" width="3.76" height="34" class="cat-7">
<title>booleans_nulls.json: 1.79 ms</title>
</rect>
<line class="gap" x1="465.26" y1="264" x2="465.26" y2="298"/>
<rect x="465.26" y="264" width="2.60" height="34" class="cat-8">
<title>citm_catalog.json: 1.24 ms</title>
</rect>
<line class="gap" x1="467.86" y1="264" x2="467.86" y2="298"/>
<rect x="467.86" y="264" width="2.11" height="34" class="cat-9">
<title>twitter.json: 1.01 ms</title>
</rect>
<line class="gap" x1="469.98" y1="264" x2="469.98" y2="298"/>
<path d="M 469.98 264 L 470.48 264 Q 470.99 264 470.99 264.50646 L 470.99 297.49354 Q 470.99 298 470.48 298 L 469.98 298 Z" class="cat-10">
<title>other (3 smaller files): 0.48 ms</title>
</path>
<text x="156" y="278.0" text-anchor="end" class="lib-label ink-primary">jackson</text>
<text x="156" y="293.0" text-anchor="end" class="mode-label ink-secondary">stream</text>
<text x="481.0" y="285.5" class="total-label ink-primary">144.48 ms</text>
<path d="M 172.00 316 L 350.06 316 L 350.06 350 L 172.00 350 Q 168.00 350 168.00 346 L 168.00 320 Q 168.00 316 172.00 316 Z" class="cat-0">
<title>large_mixed.json: 86.81 ms</title>
</path>
<line class="gap" x1="350.06" y1="316" x2="350.06" y2="350"/>
<rect x="350.06" y="316" width="42.96" height="34" class="cat-1">
<title>wide_object.json: 20.48 ms</title>
</rect>
<line class="gap" x1="393.02" y1="316" x2="393.02" y2="350"/>
<rect x="393.02" y="316" width="33.27" height="34" class="cat-2">
<title>numbers_heavy.json: 15.86 ms</title>
</rect>
<line class="gap" x1="426.28" y1="316" x2="426.28" y2="350"/>
<rect x="426.28" y="316" width="16.26" height="34" class="cat-3">
<title>canada.json: 7.75 ms</title>
</rect>
<line class="gap" x1="442.55" y1="316" x2="442.55" y2="350"/>
<rect x="442.55" y="316" width="16.10" height="34" class="cat-4">
<title>strings_unicode.json: 7.68 ms</title>
</rect>
<line class="gap" x1="458.65" y1="316" x2="458.65" y2="350"/>
<rect x="458.65" y="316" width="14.63" height="34" class="cat-5">
<title>medium_mixed.json: 6.98 ms</title>
</rect>
<line class="gap" x1="473.29" y1="316" x2="473.29" y2="350"/>
<rect x="473.29" y="316" width="16.23" height="34" class="cat-6">
<title>strings_ascii.json: 7.74 ms</title>
</rect>
<line class="gap" x1="489.51" y1="316" x2="489.51" y2="350"/>
<rect x="489.51" y="316" width="8.19" height="34" class="cat-7">
<title>booleans_nulls.json: 3.90 ms</title>
</rect>
<line class="gap" x1="497.70" y1="316" x2="497.70" y2="350"/>
<rect x="497.70" y="316" width="5.74" height="34" class="cat-8">
<title>citm_catalog.json: 2.74 ms</title>
</rect>
<line class="gap" x1="503.44" y1="316" x2="503.44" y2="350"/>
<rect x="503.44" y="316" width="3.77" height="34" class="cat-9">
<title>twitter.json: 1.80 ms</title>
</rect>
<line class="gap" x1="507.21" y1="316" x2="507.21" y2="350"/>
<path d="M 507.21 316 L 507.53 316 Q 507.86 316 507.86 316.3271542857143 L 507.86 349.6728457142857 Q 507.86 350 507.53 350 L 507.21 350 Z" class="cat-10">
<title>other (3 smaller files): 0.31 ms</title>
</path>
<text x="156" y="330.0" text-anchor="end" class="lib-label ink-primary">gson</text>
<text x="156" y="345.0" text-anchor="end" class="mode-label ink-secondary">dom</text>
<text x="517.9" y="337.5" class="total-label ink-primary">162.06 ms</text>
<path d="M 172.00 368 L 330.20 368 L 330.20 402 L 172.00 402 Q 168.00 402 168.00 398 L 168.00 372 Q 168.00 368 172.00 368 Z" class="cat-0">
<title>large_mixed.json: 77.34 ms</title>
</path>
<line class="gap" x1="330.20" y1="368" x2="330.20" y2="402"/>
<rect x="330.20" y="368" width="94.64" height="34" class="cat-1">
<title>wide_object.json: 45.13 ms</title>
</rect>
<line class="gap" x1="424.84" y1="368" x2="424.84" y2="402"/>
<rect x="424.84" y="368" width="41.05" height="34" class="cat-2">
<title>numbers_heavy.json: 19.57 ms</title>
</rect>
<line class="gap" x1="465.89" y1="368" x2="465.89" y2="402"/>
<rect x="465.89" y="368" width="43.38" height="34" class="cat-3">
<title>canada.json: 20.68 ms</title>
</rect>
<line class="gap" x1="509.27" y1="368" x2="509.27" y2="402"/>
<rect x="509.27" y="368" width="15.52" height="34" class="cat-4">
<title>strings_unicode.json: 7.40 ms</title>
</rect>
<line class="gap" x1="524.78" y1="368" x2="524.78" y2="402"/>
<rect x="524.78" y="368" width="11.35" height="34" class="cat-5">
<title>medium_mixed.json: 5.41 ms</title>
</rect>
<line class="gap" x1="536.13" y1="368" x2="536.13" y2="402"/>
<rect x="536.13" y="368" width="4.98" height="34" class="cat-6">
<title>strings_ascii.json: 2.37 ms</title>
</rect>
<line class="gap" x1="541.11" y1="368" x2="541.11" y2="402"/>
<rect x="541.11" y="368" width="5.12" height="34" class="cat-7">
<title>booleans_nulls.json: 2.44 ms</title>
</rect>
<line class="gap" x1="546.23" y1="368" x2="546.23" y2="402"/>
<rect x="546.23" y="368" width="4.57" height="34" class="cat-8">
<title>citm_catalog.json: 2.18 ms</title>
</rect>
<line class="gap" x1="550.80" y1="368" x2="550.80" y2="402"/>
<rect x="550.80" y="368" width="2.19" height="34" class="cat-9">
<title>twitter.json: 1.04 ms</title>
</rect>
<line class="gap" x1="552.99" y1="368" x2="552.99" y2="402"/>
<path d="M 552.99 368 L 553.62 368 Q 554.25 368 554.25 368.63228857142855 L 554.25 401.36771142857145 Q 554.25 402 553.62 402 L 552.99 402 Z" class="cat-10">
<title>other (3 smaller files): 0.60 ms</title>
</path>
<text x="156" y="382.0" text-anchor="end" class="lib-label ink-primary">jackson</text>
<text x="156" y="397.0" text-anchor="end" class="mode-label ink-secondary">dom</text>
<text x="564.3" y="389.5" class="total-label ink-primary">184.18 ms</text>
<path d="M 172.00 420 L 535.48 420 L 535.48 454 L 172.00 454 Q 168.00 454 168.00 450 L 168.00 424 Q 168.00 420 172.00 420 Z" class="cat-0">
<title>large_mixed.json: 175.23 ms</title>
</path>
<line class="gap" x1="535.48" y1="420" x2="535.48" y2="454"/>
<rect x="535.48" y="420" width="47.97" height="34" class="cat-1">
<title>wide_object.json: 22.88 ms</title>
</rect>
<line class="gap" x1="583.46" y1="420" x2="583.46" y2="454"/>
<rect x="583.46" y="420" width="82.17" height="34" class="cat-2">
<title>numbers_heavy.json: 39.18 ms</title>
</rect>
<line class="gap" x1="665.62" y1="420" x2="665.62" y2="454"/>
<rect x="665.62" y="420" width="42.31" height="34" class="cat-3">
<title>canada.json: 20.17 ms</title>
</rect>
<line class="gap" x1="707.93" y1="420" x2="707.93" y2="454"/>
<rect x="707.93" y="420" width="31.48" height="34" class="cat-4">
<title>strings_unicode.json: 15.01 ms</title>
</rect>
<line class="gap" x1="739.41" y1="420" x2="739.41" y2="454"/>
<rect x="739.41" y="420" width="30.03" height="34" class="cat-5">
<title>medium_mixed.json: 14.32 ms</title>
</rect>
<line class="gap" x1="769.44" y1="420" x2="769.44" y2="454"/>
<rect x="769.44" y="420" width="32.61" height="34" class="cat-6">
<title>strings_ascii.json: 15.55 ms</title>
</rect>
<line class="gap" x1="802.05" y1="420" x2="802.05" y2="454"/>
<rect x="802.05" y="420" width="21.75" height="34" class="cat-7">
<title>booleans_nulls.json: 10.37 ms</title>
</rect>
<line class="gap" x1="823.80" y1="420" x2="823.80" y2="454"/>
<rect x="823.80" y="420" width="20.18" height="34" class="cat-8">
<title>citm_catalog.json: 9.62 ms</title>
</rect>
<line class="gap" x1="843.98" y1="420" x2="843.98" y2="454"/>
<rect x="843.98" y="420" width="9.53" height="34" class="cat-9">
<title>twitter.json: 4.54 ms</title>
</rect>
<line class="gap" x1="853.51" y1="420" x2="853.51" y2="454"/>
<path d="M 853.51 420 L 854.18 420 Q 854.84 420 854.84 420.6637457142857 L 854.84 453.3362542857143 Q 854.84 454 854.18 454 L 853.51 454 Z" class="cat-10">
<title>other (3 smaller files): 0.63 ms</title>
</path>
<text x="156" y="434.0" text-anchor="end" class="lib-label ink-primary">org.json</text>
<text x="156" y="449.0" text-anchor="end" class="mode-label ink-secondary">dom</text>
<text x="864.8" y="441.5" class="total-label ink-primary">327.51 ms</text>
<text x="168" y="506" class="axis-tick ink-muted">corpus file</text>
<rect x="168" y="510" width="12" height="12" rx="3" class="cat-0"/>
<text x="186" y="520" class="legend-label ink-secondary">large_mixed.json</text>
<rect x="436" y="510" width="12" height="12" rx="3" class="cat-1"/>
<text x="454" y="520" class="legend-label ink-secondary">wide_object.json</text>
<rect x="704" y="510" width="12" height="12" rx="3" class="cat-2"/>
<text x="722" y="520" class="legend-label ink-secondary">numbers_heavy.json</text>
<rect x="168" y="534" width="12" height="12" rx="3" class="cat-3"/>
<text x="186" y="544" class="legend-label ink-secondary">canada.json</text>
<rect x="436" y="534" width="12" height="12" rx="3" class="cat-4"/>
<text x="454" y="544" class="legend-label ink-secondary">strings_unicode.json</text>
<rect x="704" y="534" width="12" height="12" rx="3" class="cat-5"/>
<text x="722" y="544" class="legend-label ink-secondary">medium_mixed.json</text>
<rect x="168" y="558" width="12" height="12" rx="3" class="cat-6"/>
<text x="186" y="568" class="legend-label ink-secondary">strings_ascii.json</text>
<rect x="436" y="558" width="12" height="12" rx="3" class="cat-7"/>
<text x="454" y="568" class="legend-label ink-secondary">booleans_nulls.json</text>
<rect x="704" y="558" width="12" height="12" rx="3" class="cat-8"/>
<text x="722" y="568" class="legend-label ink-secondary">citm_catalog.json</text>
<rect x="168" y="582" width="12" height="12" rx="3" class="cat-9"/>
<text x="186" y="592" class="legend-label ink-secondary">twitter.json</text>
<rect x="436" y="582" width="12" height="12" rx="3" class="cat-10"/>
<text x="454" y="592" class="legend-label ink-secondary">other (3 smaller files)</text>
</svg>